<?xml version="1.0" standalone="no"?>
<!DOCTYPE svg PUBLIC "-//W3C//DTD SVG 20010904//EN"
 "http://www.w3.org/TR/2001/REC-SVG-20010904/DTD/svg10.dtd">
<svg version="1.0" xmlns="http://www.w3.org/2000/svg"
 width="153.000000pt" height="153.000000pt" viewBox="0 0 153.000000 153.000000"
 preserveAspectRatio="xMidYMid meet">
<metadata>
Created by potrace 1.11, written by Peter Selinger 2001-2013
</metadata>
<g transform="translate(0.000000,153.000000) scale(0.100000,-0.100000)"
fill="#000000" stroke="none">
<path d="M715 1479 c-195 -21 -375 -130 -496 -303 -48 -68 -104 -195 -111
-250 -3 -26 1 -31 28 -38 56 -14 94 -76 86 -140 -4 -37 -53 -87 -91 -94 -17
-4 -31 -11 -31 -16 0 -25 55 -169 86 -224 92 -164 272 -298 462 -344 57 -13
200 -17 277 -7 139 17 307 107 408 216 85 92 162 244 182 361 13 73 8 234 -10
302 -54 215 -195 383 -398 478 -123 57 -244 75 -392 59z"/>
<path d="M55 848 c-32 -19 -44 -40 -45 -81 0 -82 92 -116 152 -57 26 27 30 36
25 68 -11 65 -78 101 -132 70z"/>
</g>
</svg>
